<?xml version="1.0" encoding="UTF-8"?>
<!DOCTYPE svg PUBLIC "-//W3C//DTD SVG 1.1//EN" "http://www.w3.org/Graphics/SVG/1.1/DTD/svg11.dtd">
<svg xmlns="http://www.w3.org/2000/svg" version="1.1" width="500px" height="500px" style="shape-rendering:geometricPrecision; text-rendering:geometricPrecision; image-rendering:optimizeQuality; fill-rule:evenodd; clip-rule:evenodd" xmlns:xlink="http://www.w3.org/1999/xlink">
<g><path style="opacity:1" fill="#fbf2e9" d="M -0.5,-0.5 C 166.167,-0.5 332.833,-0.5 499.5,-0.5C 499.5,166.167 499.5,332.833 499.5,499.5C 332.833,499.5 166.167,499.5 -0.5,499.5C -0.5,332.833 -0.5,166.167 -0.5,-0.5 Z"/></g>
<g><path style="opacity:1" fill="#ff6ac5" d="M 175.5,226.5 C 187.047,226.641 190.88,231.975 187,242.5C 182.975,245.393 178.475,246.226 173.5,245C 165.298,237.952 165.965,231.785 175.5,226.5 Z"/></g>
<g><path style="opacity:1" fill="#ff6bc5" d="M 341.5,232.5 C 346.584,231.755 350.084,233.755 352,238.5C 352.667,255.833 352.667,273.167 352,290.5C 347.714,297.916 343.047,298.249 338,291.5C 337.333,273.167 337.333,254.833 338,236.5C 339.376,235.295 340.542,233.962 341.5,232.5 Z"/></g>
<g><path style="opacity:1" fill="#ff68c4" d="M 100.5,249.5 C 106.472,249.157 111.805,250.824 116.5,254.5C 126.557,247.445 136.057,248.112 145,256.5C 146.608,259.382 147.941,262.382 149,265.5C 149.947,275.267 149.613,284.934 148,294.5C 143.659,297.448 139.659,297.115 136,293.5C 134.722,284.601 134.055,275.601 134,266.5C 130.477,262.299 127.477,262.632 125,267.5C 124.667,276.167 124.333,284.833 124,293.5C 119.667,297.5 115.333,297.5 111,293.5C 110.667,284.833 110.333,276.167 110,267.5C 107.523,262.632 104.523,262.299 101,266.5C 100.667,275.5 100.333,284.5 100,293.5C 96.205,296.803 92.0383,297.303 87.5,295C 86.8742,294.25 86.3742,293.416 86,292.5C 85.1011,282.107 85.4344,271.773 87,261.5C 89.8332,255.493 94.3332,251.493 100.5,249.5 Z"/></g>
<g><path style="opacity:1" fill="#ff69c4" d="M 387.5,251.5 C 399.993,249.494 408.826,254.161 414,265.5C 415.802,272.735 413.302,277.568 406.5,280C 399.833,280.333 393.167,280.667 386.5,281C 388.829,283.829 391.829,284.996 395.5,284.5C 399.54,283.864 403.54,283.364 407.5,283C 411.911,287.868 411.244,291.868 405.5,295C 380.383,299.88 369.549,289.713 373,264.5C 376.162,258.164 380.996,253.831 387.5,251.5 Z"/></g>
<g><path style="opacity:1" fill="#ff6cc5" d="M 176.5,251.5 C 181.023,251.345 184.189,253.345 186,257.5C 186.667,268.5 186.667,279.5 186,290.5C 181.663,297.933 176.997,298.266 172,291.5C 171.333,279.833 171.333,268.167 172,256.5C 173.025,254.313 174.525,252.646 176.5,251.5 Z"/></g>
<g><path style="opacity:1" fill="#ff69c4" d="M 223.5,252.5 C 237.997,250.153 247.497,255.82 252,269.5C 252.667,277.5 252.667,285.5 252,293.5C 247.3,297.399 242.634,297.399 238,293.5C 237.667,285.833 237.333,278.167 237,270.5C 235.982,267.317 233.815,265.984 230.5,266.5C 228.307,266.326 226.473,266.993 225,268.5C 224.667,276.5 224.333,284.5 224,292.5C 219.867,296.9 215.2,297.567 210,294.5C 208.424,285.911 208.09,277.244 209,268.5C 210.919,260.419 215.753,255.085 223.5,252.5 Z"/></g>
<g><path style="opacity:1" fill="#ff69c4" d="M 288.5,251.5 C 303.726,249.899 312.893,256.565 316,271.5C 316.667,277.833 316.667,284.167 316,290.5C 312.844,306.841 303.011,313.341 286.5,310C 281.121,308.323 278.621,304.823 279,299.5C 281.206,295.875 284.373,294.708 288.5,296C 293.517,299.538 297.684,298.705 301,293.5C 301.49,292.207 301.657,290.873 301.5,289.5C 289.808,291.777 280.642,288.11 274,278.5C 270.435,264.917 275.268,255.917 288.5,251.5 Z"/></g>
<g><path style="opacity:1" fill="#fbefe9" d="M 400.5,268.5 C 395.637,268.819 390.97,268.486 386.5,267.5C 389.622,263.213 393.622,262.379 398.5,265C 399.823,265.816 400.489,266.983 400.5,268.5 Z"/></g>
<g><path style="opacity:1" fill="#fbebe7" d="M 290.5,264.5 C 297.497,263.666 300.664,266.666 300,273.5C 295.571,278.808 291.237,278.808 287,273.5C 285.665,269.392 286.832,266.392 290.5,264.5 Z"/></g>
<g><path style="opacity:1" fill="#fcafd7" d="M 386.5,267.5 C 390.97,268.486 395.637,268.819 400.5,268.5C 395.652,269.814 390.652,269.814 385.5,268.5C 385.624,267.893 385.957,267.56 386.5,267.5 Z"/></g>
</svg>
